<svg xmlns="http://www.w3.org/2000/svg" fill="none" viewBox="0 0 234 37" height="37" width="234">
<path fill="#0F0F0F" d="M60.7189 2.22633C60.3321 1.37636 59.3027 0.682447 58.4314 0.682447H56.6607C55.7911 0.682447 54.7738 1.38429 54.3975 2.24044L40.3595 34.2661C39.9695 35.1134 40.3934 35.7201 41.2646 35.7201H44.5089C45.7895 35.7201 46.3765 35.0844 46.7229 34.3049C47.0709 33.5255 47.8444 31.8317 47.9921 31.4861C48.1924 31.0188 48.8093 30.7322 49.6789 30.7331L64.7835 30.7419C65.6539 30.7437 66.2135 30.9244 66.471 31.4861C66.639 31.852 67.4109 33.3756 67.7904 34.207C68.1731 35.0385 68.8158 35.7201 70.0633 35.7201H74.7706C75.641 35.7201 76.0222 34.9988 75.7089 34.3287C75.394 33.6569 60.7189 2.22633 60.7189 2.22633ZM51.8501 25.7867C50.9805 25.7867 50.5711 25.0795 50.9369 24.2199L56.4686 11.2789C56.8368 10.4166 57.4318 10.4228 57.7911 11.2842L63.1767 24.2251C63.536 25.0883 63.1186 25.7955 62.2498 25.7955L51.8501 25.7867ZM169.192 2.47409V34.2458C169.192 35.1205 169.903 35.7201 170.774 35.7201H174.61C175.48 35.7201 176.192 35.1135 176.192 34.163V2.40973C176.192 1.45836 175.63 0.683328 174.761 0.683328H170.774C169.903 0.682446 169.192 1.26703 169.192 2.47409ZM104.907 22.3744C104.407 21.5967 104.682 20.738 105.514 20.4664C105.514 20.4664 108.829 19.3828 110.416 17.8292C112.003 16.2712 112.801 14.0219 112.801 11.0902C112.801 9.17337 112.494 7.56159 111.883 6.25048C111.28 4.95087 110.373 3.84803 109.255 3.05338C108.115 2.22986 106.751 1.62588 105.162 1.24763C103.57 0.871133 101.423 0.76092 101.423 0.76092C100.37 0.713194 99.3161 0.687031 98.2621 0.682447H82.3314C81.9125 0.68361 81.511 0.865873 81.2147 1.18938C80.9184 1.51289 80.7515 1.95133 80.7505 2.40885V34.163C80.7505 35.1143 81.4618 35.7201 82.3314 35.7201H86.1013C86.9717 35.7201 87.6831 35.1135 87.6831 34.163C87.6831 34.163 87.6855 21.5333 87.6928 21.5333C87.6992 21.5333 87.7033 21.5262 87.7033 21.5174C87.7033 21.5068 94.8499 21.498 94.8499 21.498C95.7187 21.498 96.841 22.1328 97.344 22.9105L104.763 34.3173C105.452 35.3277 106.108 35.7201 106.977 35.7201H111.905C112.776 35.7201 112.912 34.8242 112.611 34.3587L104.907 22.3744ZM101.908 15.9256C100.931 16.1707 99.8325 16.22 99.8325 16.22C98.9637 16.2615 97.5418 16.295 96.6714 16.295H89.2867C88.8675 16.2936 88.466 16.1112 88.1696 15.7875C87.8732 15.4639 87.7062 15.0254 87.7049 14.5677V8.13383C87.7049 7.18334 88.4162 6.40655 89.2867 6.40655H96.6714C97.5418 6.40655 98.9637 6.44093 99.8325 6.48061C99.8325 6.48061 100.931 6.52822 101.908 6.77422C102.884 7.02022 103.658 7.36321 104.225 7.80671C104.794 8.25286 105.2 8.77572 105.446 9.37705C105.688 9.97838 105.812 10.6335 105.812 11.3486C105.817 12.0262 105.693 12.6975 105.446 13.3192C105.2 13.9205 104.794 14.4434 104.225 14.8895C103.658 15.3357 102.884 15.6831 101.908 15.9256ZM216.291 0.682447C215.421 0.682447 214.718 1.30847 214.718 2.22369L214.728 22.5349C214.728 23.4871 214.235 23.7032 213.631 23.019L195.007 1.9239C194.662 1.52658 194.246 1.21123 193.785 0.997608C193.323 0.783987 192.827 0.676693 192.325 0.682447H188.823C187.722 0.682447 187.239 1.32434 187.239 1.97416V34.4539C187.239 35.102 187.805 35.7201 188.676 35.7201H192.184C193.052 35.7201 193.661 35.2034 193.661 34.3287L193.679 12.9312C193.679 11.9816 194.17 11.7647 194.773 12.4507L214.192 34.4963C214.809 35.1708 215.559 35.7201 216.892 35.7201H219.527C220.398 35.7201 221.11 34.9433 221.11 33.9928V2.40973C221.109 1.95191 220.941 1.51321 220.645 1.18965C220.348 0.866085 219.946 0.684026 219.527 0.683328L216.291 0.682447ZM140.358 20.4875C139.935 21.3172 139.24 21.3146 138.823 20.4831L129.72 2.22633C129.333 1.379 128.539 0.682447 127.433 0.682447H122.496C122.076 0.683144 121.674 0.865171 121.377 1.18871C121.081 1.51224 120.913 1.95095 120.912 2.40885V34.1224C120.912 35.0711 121.484 35.7201 122.496 35.7201H125.565C126.436 35.7201 127.063 35.1205 127.063 34.2044C127.063 33.7653 127.076 11.1387 127.109 11.1387C127.143 11.1387 138.472 34.1982 138.472 34.1982C138.882 35.035 139.889 35.0385 140.307 34.2053C140.307 34.2053 151.729 11.2048 151.763 11.2048C151.799 11.2048 151.786 33.544 151.786 34.2044C151.786 35.1214 152.457 35.7201 153.328 35.7201H156.863C157.734 35.7201 158.444 35.2466 158.444 33.9928V2.40973C158.443 1.95207 158.277 1.51336 157.98 1.18975C157.684 0.866142 157.282 0.684027 156.863 0.683328H152.13C150.922 0.683328 150.195 1.35608 149.763 2.18225L140.358 20.4875ZM0 18.1704C0 35.2801 16.0259 36.1477 19.2395 36.1477C29.8742 36.1477 34.3684 33.0097 34.5549 32.8739C35.2202 32.463 36.03 31.6342 36.03 30.0815V18.2718C36.0292 17.7484 35.8383 17.2466 35.4993 16.8766C35.1603 16.5065 34.7007 16.2983 34.2214 16.2976H20.8608C19.862 16.2976 19.2064 17.1838 19.2064 18.2718V19.4947C19.2064 20.5845 19.862 21.4733 20.8608 21.4733H28.5888C29.3348 21.4733 29.9412 22.1346 29.9412 22.9493L29.9339 28.4538C28.4071 29.1345 21.4535 31.3529 15.866 29.8981C7.76104 27.7811 7.12963 20.4796 7.12963 18.2921C7.12963 16.4563 7.63346 7.26005 17.5875 6.32984C25.6449 5.57685 30.9505 9.12928 31.003 9.16367C31.9501 9.69975 32.9303 9.31797 33.4584 8.22288C33.4608 8.21406 34.4636 5.99831 34.4636 5.99831C34.8811 5.08662 34.7406 4.14142 33.7216 3.38667C33.6538 3.34435 28.0058 0 19.2411 0C0.539364 0.000881716 0 16.3109 0 18.1704ZM226.135 31.3582H224.758V30.816H228.109V31.3582H226.726V35.7571H226.135V31.3582ZM232.762 33.5872C232.729 32.8977 232.688 32.0618 232.688 31.4534H232.674C232.5 32.0845 232.309 32.7104 232.104 33.3306L231.305 35.7271H230.862L230.123 33.3747C229.926 32.7427 229.753 32.1017 229.606 31.4534H229.593C229.579 32.0689 229.545 32.8906 229.505 33.6383L229.385 35.7562H228.828L229.144 30.8151H229.889L230.662 33.2054C230.849 33.8138 230.997 34.3569 231.118 34.8692H231.131C231.252 34.371 231.413 33.8288 231.615 33.2054L232.421 30.8151H233.166L233.449 35.7562H232.871L232.762 33.5872Z"></path>
</svg>
