<svg data-v-411c68a7="" fill="none" viewBox="0 0 230 32" xmlns="http://www.w3.org/2000/svg" class="header__logo-icon" style="width: 100%;"><path fill="currentColor" d="M26.245 31.126c-.05-.301-.05-.608 0-.909h2.625c.203 0 .303-.05.303-.202V16.799c0-3.178-1.564-4.642-3.128-4.642a5.166 5.166 0 0 0-5.347 5.348v12.511c0 .151.05.202.252.202h2.623c.151 0 .151.909 0 .909H13.18c-.101 0-.101-.909 0-.909h2.573c.202 0 .252-.05.252-.202V16.799c0-3.178-1.413-4.642-3.078-4.642-2.779 0-4.287 1.362-5.296 4.541v13.369c0 .151.1.202.252.202h2.573c.151 0 .151.909 0 .909H.114c-.152 0-.152-.909 0-.909h2.573c.252 0 .352-.05.352-.202V12.712c0-.151-.1-.202-.352-.202H.114c-.152 0-.152-.908 0-.908H7.53a.134.134 0 0 1 .152.151v3.026a5.286 5.286 0 0 1 5.296-3.58c4.187 0 6.613 1.463 7.516 3.683a5.87 5.87 0 0 1 5.597-3.683c4.792 0 7.667 1.82 7.667 6.66v12.106c0 .152.151.202.303.202h2.673c.05.301.05.608 0 .909H26.245zM54.546 31.478a4.25 4.25 0 0 1-4.133-3.228 4.94 4.94 0 0 1-4.843 3.228c-3.178 0-6.558-1.21-6.558-4.791 0-4.792 4.44-5.6 6.306-5.802 2.573-.252 4.944-.404 4.944-1.362v-3.482c0-3.682-1.412-3.934-3.077-3.934-1.312 0-2.27.202-2.27 1.564 0 .757.352 1.059.352 1.82 0 .909-.605 1.716-2.17 1.716a2.044 2.044 0 0 1-2.07-2.225c0-1.716 2.422-3.834 6.103-3.834 4.792 0 7.719 2.573 7.719 8.274v9.08c0 1.16.403 1.614 1.009 1.614a1.48 1.48 0 0 0 1.413-.959c.05-.1.605.404.554.504-.202.859-1.567 1.817-3.279 1.817m-4.288-10.644c-1.059.706-2.673.707-4.035.909-1.665.303-2.674.757-2.674 4.944 0 2.37.656 3.683 2.78 3.683 2.37 0 3.883-2.422 3.883-4.894v-4.642zM66.654 31.53c-2.926 0-4.238-1.514-4.238-4.49V12.711c0-.151-.152-.202-.303-.202h-3.229c-.1 0-.1-.908 0-.908h3.23c.203 0 .304-.051.304-.203V7.113c1.967-.252 3.329-2.17 3.737-3.48.051-.102.807 0 .807 0V11.4c0 .152.151.203.353.203h3.884c.1 0 .1.908 0 .908h-3.89c-.252 0-.353.05-.353.202v16.043a1.246 1.246 0 0 0 1.413 1.312c1.261 0 2.22-1.21 2.725-3.027 0 0 .554.303.554.404a4.88 4.88 0 0 1-4.995 4.083M74.12 31.126c-.1 0-.1-.909 0-.909h2.623c.252 0 .303-.05.303-.202V12.712c0-.151-.1-.202-.303-.202H74.12c-.1 0-.1-.908 0-.908h7.415a.134.134 0 0 1 .152.151v18.263c0 .151.1.202.252.202h2.674c.1 0 .1.909 0 .909zm5.297-24.972a2.95 2.95 0 0 1-2.929-3.026A3.007 3.007 0 0 1 79.417 0a2.97 2.97 0 0 1 2.875 3.128 2.94 2.94 0 0 1-2.875 3.026M95.407 31.53c-2.779 0-3.279-1.211-4.695-1.211a2.05 2.05 0 0 0-1.716.858c-.05.15-.858.1-.807 0l.252-7.063c0-.101.807-.101.807 0a6.24 6.24 0 0 0 6.155 6.558c2.623 0 4.287-1.161 4.287-3.834 0-2.32-1.765-2.926-5.448-3.935-3.38-.807-5.448-2.421-5.448-5.448 0-3.986 2.825-6.154 5.75-6.154 2.27 0 2.22.706 3.784.706a1.21 1.21 0 0 0 1.009-.757c.05-.1.857-.1.857 0V17c0 .1-.857.1-.857 0a5.06 5.06 0 0 0-4.792-4.742c-2.17 0-3.532 1.01-3.532 3.178 0 2.22 1.821 2.724 5.348 3.737 3.229.858 5.902 2.623 5.902 5.852.056 3.578-2.366 6.504-6.856 6.504M113.115 31.53c-2.78 0-3.28-1.211-4.696-1.211a2.05 2.05 0 0 0-1.716.858c-.051.15-.857.1-.807 0l.252-7.063c0-.101.807-.101.807 0a6.25 6.25 0 0 0 1.683 4.587 6.24 6.24 0 0 0 4.472 1.97c2.623 0 4.287-1.16 4.287-3.833 0-2.32-1.765-2.926-5.448-3.935-3.38-.807-5.448-2.421-5.448-5.448 0-3.986 2.825-6.154 5.75-6.154 2.27 0 2.22.706 3.784.706a1.21 1.21 0 0 0 1.009-.757c.05-.1.857-.1.857 0V17c0 .1-.857.1-.857 0a5.06 5.06 0 0 0-4.792-4.742c-2.22 0-3.531 1.01-3.531 3.178 0 2.22 1.82 2.724 5.347 3.737 3.229.858 5.902 2.623 5.902 5.852.056 3.578-2.366 6.504-6.855 6.504M141.517 20.33h-13.369v1.059c0 5.096.454 7.063 1.821 8.273a4.4 4.4 0 0 0 3.128.959 9.23 9.23 0 0 0 7.571-3.935c.05-.051.554.352.504.454a9.73 9.73 0 0 1-8.071 4.39 10.147 10.147 0 0 1-9.818-10.14 10.145 10.145 0 0 1 9.818-10.14c5.851 0 8.529 5.802 8.529 8.98.038.05-.013.1-.113.1m-5.852-7.214a3.23 3.23 0 0 0-2.573-.959 4.54 4.54 0 0 0-3.128.959c-1.21 1.11-1.716 2.623-1.821 6.306h9.08c-.045-3.733-.499-5.246-1.559-6.305zM162.099 18.615a1.99 1.99 0 0 1-2.068-2.12c0-1.664.706-1.715.706-2.925 0-1.01-.858-1.513-2.32-1.513-1.665 0-2.623.757-3.632 2.471-1.161 2.068-3.431 10.09-3.431 12.864 0 2.32.706 3.48 2.825 3.48 3.329 0 5.549-1.866 7.365-4.287l.605.404c-2.068 2.724-4.893 4.54-8.021 4.54-4.086 0-7.112-3.077-7.112-7.618 0-6.508 5.196-12.611 11.35-12.611 3.178 0 6.154 2.623 6.154 4.994a2.205 2.205 0 0 1-1.482 2.212 2.2 2.2 0 0 1-.939.109M182.681 28.503c-.202.706.051 1.362.908 1.362 1.464 0 2.875-1.262 4.036-3.23l.706.253c-1.412 2.825-4.187 4.641-6.356 4.641-2.674 0-4.187-2.119-3.38-4.893-1.564 3.178-3.582 4.893-6.206 4.893-4.439 0-5.953-3.683-5.953-7.315 0-5.801 5.6-12.914 12.612-12.914a3.115 3.115 0 0 1 3.329 2.37l.858-1.967 4.944-.504zm-3.632-16.496a4.3 4.3 0 0 0-2.472 1.013c-3.329 2.573-5.499 10.695-5.499 14.528 0 2.371.807 3.078 2.119 3.078 2.271 0 4.238-2.674 6.255-7.667l2.523-7.92a2.85 2.85 0 0 0-.788-2.168 2.84 2.84 0 0 0-2.138-.865zM203.869 17.555a1.725 1.725 0 0 1-1.968-1.765c0-1.11.858-1.413.858-2.27 0-.858-.757-1.413-2.169-1.413-2.068 0-3.077 1.11-3.077 2.976 0 3.986 6.205 5.045 6.205 10.493 0 3.077-2.779 6.003-7.769 6.003-3.683 0-6.205-2.119-6.205-4.54 0-1.565.958-2.977 2.371-2.977a2.077 2.077 0 0 1 2.119 2.068c0 2.018-1.362 1.665-1.362 2.875 0 1.16.757 1.867 3.077 1.867 2.623 0 3.632-1.413 3.632-3.431 0-4.54-5.802-4.994-5.802-9.787 0-3.077 3.128-6.356 6.962-6.356 2.825 0 5.247 1.614 5.247 3.935a1.987 1.987 0 0 1-1.229 2.193 2 2 0 0 1-.89.129M224.35 28.503c-.202.706.051 1.362.909 1.362 1.463 0 2.875-1.262 4.035-3.23l.706.253c-1.412 2.825-4.186 4.641-6.356 4.641-2.674 0-4.187-2.119-3.38-4.893-1.564 3.178-3.581 4.893-6.205 4.893-4.439 0-5.953-3.683-5.953-7.315 0-5.801 5.6-12.914 12.612-12.914a3.12 3.12 0 0 1 3.329 2.37l.858-1.967 4.944-.504zm-3.683-16.496a4.3 4.3 0 0 0-2.471 1.013c-3.33 2.573-5.499 10.695-5.499 14.528 0 2.371.807 3.078 2.119 3.078 2.27 0 4.237-2.674 6.255-7.667l2.522-7.92a2.8 2.8 0 0 0-.778-2.178 2.8 2.8 0 0 0-2.148-.855z"></path></svg>