<svg data-v-5d3a16fe="" xmlns="http://www.w3.org/2000/svg" width="162" height="44" viewBox="0 0 162 44" fill="none"><g clip-path="url(#clip0_1435_1111)"><path d="M72.119 12.8057L38.0484 35.9596L37.4287 36.3759C36.3731 37.0622 35.1186 37.4631 33.7647 37.4631C30.9344 37.4631 28.5095 35.7052 27.5074 33.2147L25.7251 28.018C25.6792 27.8793 25.6333 27.7405 25.5874 27.6017L25.5721 27.5631C24.5318 24.826 21.9004 22.883 18.8176 22.883C17.9303 22.883 17.0889 23.0449 16.301 23.3379C16.3698 22.8753 16.4081 22.3973 16.4081 21.9115V20.94C16.4081 17.7172 19.0012 15.1034 22.1987 15.1034C23.6215 15.1034 24.9219 15.62 25.9316 16.4835H25.9393L30.659 20.4235C30.8196 20.57 30.9879 20.7087 31.1562 20.8398L31.1944 20.8707C32.6096 21.9501 34.3766 22.59 36.289 22.59C39.2646 22.59 41.8807 21.0326 43.3877 18.6887C44.1909 17.4781 44.7799 16.1134 45.0935 14.6408L49.0636 13.1373L73.4653 3.87729H73.5494C73.7866 3.86958 73.9702 4.05462 73.9702 4.29364C73.9702 4.44014 73.8937 4.57121 73.7789 4.64831L73.6871 4.69457L47.6484 16.8382C47.3348 17.0001 47.1129 17.3317 47.1129 17.7095C47.1129 18.2492 47.549 18.6809 48.0768 18.6809C48.2145 18.6809 48.3445 18.6501 48.4669 18.5961L74.3603 6.51419C74.4444 6.48335 74.5362 6.4448 74.6127 6.39854L74.7581 6.37541C75.0258 6.37541 75.24 6.59129 75.24 6.86115C75.24 7.03849 75.1482 7.19269 75.0105 7.2775L49.9356 21.4875C49.6526 21.6571 49.4613 21.9655 49.4613 22.3279C49.4613 22.8676 49.8897 23.2994 50.4252 23.2994C50.5934 23.2994 50.7541 23.2531 50.8994 23.1683L73.3353 10.4541C73.2741 11.4102 72.8151 12.2506 72.119 12.8135V12.8057ZM50.5246 3.40696L49.5149 5.55041L49.2012 6.22891L46.2792 7.09246L44.428 7.63989C44.1756 7.03849 43.8772 6.46793 43.533 5.92821C43.1888 5.38079 42.791 4.8642 42.3626 4.37845L47.7326 3.26818L50.0274 2.79015H50.1115C50.3563 2.78244 50.5552 2.9829 50.5552 3.22963L50.517 3.39925L50.5246 3.40696ZM75.2706 10.2305C75.2706 9.94525 75.2476 9.66768 75.2017 9.39782L75.9514 8.98918C76.6781 8.56511 77.1753 7.77096 77.1753 6.86886C77.1753 5.96676 76.6398 5.11093 75.8596 4.70228C75.8825 4.57121 75.8978 4.43243 75.8978 4.30135C75.8978 2.99061 74.8422 1.93431 73.5494 1.93431C73.4118 1.93431 73.1134 2.03454 72.9834 2.05767C72.0425 1.1016 70.7344 0.515625 69.2963 0.515625C68.8144 0.515625 68.3478 0.585017 67.9041 0.708381L51.695 5.50415L52.2151 4.40159C52.261 4.31677 52.3069 4.22425 52.3375 4.13173C52.4446 3.85416 52.5058 3.55346 52.5058 3.23734C52.5058 2.92122 52.4446 2.6051 52.3299 2.32753C52.1616 1.91889 51.8862 1.56422 51.5343 1.30207C51.1442 1.00908 50.6546 0.839455 50.1268 0.839455C50.0274 0.839455 49.9203 0.839455 49.8209 0.862586C49.6985 0.878006 49.5837 0.901137 49.469 0.931978L40.5956 2.76701C38.6756 1.34833 36.3196 0.515625 33.7647 0.515625C30.7278 0.515625 27.9587 1.69529 25.8934 3.62285V3.63827C25.7327 3.76935 25.5951 3.90813 25.4574 4.0392C25.1667 4.31677 22.7036 6.66069 22.6653 6.70695C22.2675 7.06933 21.778 7.32377 21.2196 7.32377C21.0742 7.32377 20.9289 7.30834 20.7836 7.26979L16.2551 5.94363C16.125 5.90508 15.995 5.86653 15.865 5.82798L15.8114 5.81256C14.7634 5.52728 13.6696 5.37308 12.5374 5.37308C5.61469 5.37308 0 11.0324 0 18.0179C0 21.5106 1.4075 24.6641 3.67174 26.9463C3.84767 27.1314 4.09245 27.2547 4.37548 27.2547C4.91095 27.2547 5.33931 26.8152 5.33931 26.2832C5.33931 26.0211 5.23987 25.7898 5.07923 25.6125L5.06393 25.597C3.13627 23.6541 1.94296 20.9786 1.94296 18.0179C1.94296 12.1118 6.69327 7.32377 12.5527 7.32377C13.5701 7.32377 14.5492 7.47026 15.4825 7.73241L20.1333 9.10483C20.4852 9.20506 20.8524 9.26675 21.2349 9.26675C22.0534 9.26675 22.8642 9.0046 23.5221 8.51114C23.8357 8.27984 24.1111 7.98685 24.4017 7.71699C24.6695 7.46255 24.9448 7.20811 25.2126 6.95367C25.5109 6.67611 25.8092 6.39083 26.1076 6.10555C26.3523 5.87424 26.6048 5.64293 26.8496 5.40392C26.9643 5.29597 27.0867 5.18803 27.1938 5.08009H27.2014C28.9226 3.45323 31.2403 2.45861 33.78 2.45861C37.6965 2.45861 41.0699 4.81794 42.5768 8.19502C42.6074 8.26441 42.638 8.34152 42.6686 8.41862C42.9669 9.11254 43.6477 9.59829 44.4433 9.59829C44.6881 9.59829 44.9252 9.55202 45.1394 9.46721L68.3019 2.58968C68.6155 2.49716 68.9445 2.44318 69.2887 2.44318C69.8395 2.44318 70.352 2.57426 70.8109 2.82099L47.2659 11.7417L47.0365 11.8265L45.3459 12.4742L44.5198 12.7903C44.4433 12.8135 44.3744 12.8366 44.3056 12.8674C43.7931 13.091 43.403 13.5382 43.2423 14.0779C43.2117 14.1782 43.1888 14.2784 43.1811 14.3863C43.097 14.7641 42.9822 15.1419 42.8522 15.4966C42.5539 16.3293 42.1485 17.1081 41.6512 17.8174H41.6589C40.4809 19.5368 38.5226 20.6548 36.3043 20.6548C34.8432 20.6548 33.4969 20.169 32.4107 19.3517L27.1173 14.9338C25.7863 13.8312 24.0805 13.1681 22.214 13.1681C17.9533 13.1681 14.4957 16.6532 14.4957 20.9478V21.9192C14.4957 22.9447 14.2968 23.9239 13.9449 24.8183C13.9143 24.9031 13.8684 24.9956 13.8302 25.0804C13.7767 25.2038 13.7461 25.3349 13.7461 25.4737C13.7461 25.998 14.1668 26.422 14.6869 26.422C14.9317 26.422 15.1536 26.3295 15.3142 26.1753C15.383 26.1136 15.4519 26.0596 15.5284 25.998C16.431 25.2732 17.5784 24.8337 18.8329 24.8337C21.0895 24.8337 23.0172 26.2601 23.7821 28.2571L25.5721 33.5154C26.7425 36.9465 29.9782 39.4215 33.78 39.4215C35.6847 39.4215 37.444 38.8047 38.8745 37.7561L72.6392 14.8258C74.2226 13.9237 75.2859 12.2043 75.2859 10.2459" fill="#007CBD"></path> <path d="M20.7456 18.0176C19.95 18.0176 19.2998 18.6729 19.2998 19.4748C19.2998 20.2767 19.95 20.932 20.7456 20.932C21.5411 20.932 22.1913 20.2767 22.1913 19.4748C22.1913 18.6729 21.5411 18.0176 20.7456 18.0176Z" fill="#007CBD"></path> <path d="M70.5582 36.8388C70.4129 36.8388 70.2829 36.862 70.1605 36.9159C69.3649 37.2398 68.5388 37.4248 67.7356 37.4248C65.479 37.4248 64.0715 35.6129 64.0715 32.7678C64.0715 30.5319 65.1501 28.1648 67.6974 28.1648C68.5541 28.1648 69.3267 28.3267 70.1681 28.7354C70.2905 28.7893 70.4282 28.8202 70.5736 28.8202C71.1167 28.8202 71.5603 28.373 71.5603 27.8256C71.5603 27.3938 71.2849 27.0314 70.9025 26.8926C69.8851 26.4069 68.7759 26.1602 67.552 26.1602C63.865 26.1602 61.6084 29.0592 61.6084 32.8526C61.6084 36.2837 63.4978 39.4141 67.3684 39.4141C69.059 39.4141 70.0457 39.0979 70.8183 38.7433L71.1014 38.5891C71.3461 38.4117 71.5144 38.1264 71.5144 37.7949C71.5144 37.2629 71.0861 36.8388 70.5506 36.8388" fill="#007CBD"></path> <path d="M153.356 31.0714C153.402 30.9403 153.433 30.7938 153.433 30.6473C153.433 29.992 152.905 29.46 152.255 29.46C151.734 29.46 151.298 29.7915 151.138 30.2618L149.531 34.5333L149.126 35.8363L148.705 34.5179L147.068 30.2618C146.908 29.7992 146.472 29.4677 145.951 29.4677C145.301 29.4677 144.773 29.9997 144.773 30.655C144.773 30.8015 144.796 30.948 144.85 31.0791L144.865 31.1254L147.81 38.4732C147.841 38.5735 147.887 38.6583 147.94 38.7431C148.139 39.1209 148.529 39.383 148.988 39.383H149.302C149.807 39.383 150.243 39.0592 150.411 38.6043L153.348 31.11L153.364 31.0714H153.356Z" fill="#007CBD"></path> <path d="M132.573 26.1826C131.93 26.1826 131.403 26.7069 131.387 27.3469V35.1882H131.349L125.36 26.892L125.184 26.6529C124.924 26.36 124.549 26.1826 124.128 26.1826C123.348 26.1826 122.713 26.8226 122.713 27.609V38.226C122.713 38.866 123.202 39.3825 123.83 39.4211H123.967C124.564 39.3825 125.038 38.9122 125.084 38.3108V30.4849H125.122L131.15 38.7966L131.196 38.8582C131.441 39.1744 131.808 39.3903 132.236 39.4134H132.428C133.154 39.3671 133.736 38.7657 133.759 38.0255V27.3006C133.72 26.6761 133.2 26.1826 132.573 26.1826Z" fill="#007CBD"></path> <path d="M114.788 31.3258C113.059 31.3258 112.493 32.837 112.493 34.4022C112.493 35.9674 112.975 37.602 114.711 37.602C116.448 37.602 117.006 36.0753 117.006 34.4639C117.006 32.8525 116.501 31.3258 114.788 31.3258ZM114.688 39.4601C111.522 39.4601 110.061 37.3013 110.061 34.4408C110.061 31.5803 111.774 29.46 114.803 29.46C117.832 29.46 119.431 31.5803 119.431 34.4562C119.431 37.3321 117.718 39.4524 114.688 39.4524" fill="#007CBD"></path> <path d="M139.794 31.3258C138.065 31.3258 137.499 32.837 137.499 34.4022C137.499 35.9674 137.988 37.602 139.717 37.602C141.446 37.602 142.012 36.0753 142.012 34.4639C142.012 32.8525 141.507 31.3258 139.794 31.3258ZM139.694 39.4601C136.527 39.4601 135.066 37.3013 135.066 34.4408C135.066 31.5803 136.78 29.46 139.809 29.46C142.838 29.46 144.437 31.5803 144.437 34.4562C144.437 37.3321 142.723 39.4524 139.694 39.4524" fill="#007CBD"></path> <path d="M87.6321 29.3906C86.5076 29.3906 85.3832 29.7916 84.4805 30.4932C84.3964 29.9149 83.8992 29.4677 83.2949 29.4677C82.637 29.4677 82.1016 30.0074 82.1016 30.6705V38.188C82.1016 38.8588 82.6447 39.3985 83.3102 39.3985C83.9757 39.3985 84.5111 38.8588 84.5111 38.188V38.1649V33.0144C84.5417 32.6289 84.7559 32.2897 85.0619 32.0969C85.6203 31.7577 86.2935 31.5264 86.8672 31.5264C88.0834 31.5264 88.3818 32.3128 88.3818 33.4154V38.2034C88.3818 38.8665 88.9172 39.4139 89.5751 39.4139C90.2329 39.4139 90.7607 38.8819 90.776 38.2188V32.999C90.776 30.8093 89.8581 29.3983 87.6245 29.3983" fill="#007CBD"></path> <path d="M102.541 28.2952L102.709 28.2798L102.824 28.2412C102.862 28.2258 103.757 27.7632 104.101 27.7632C104.736 27.7632 105.234 28.3877 105.922 28.3877C106.61 28.3877 107.743 27.6167 107.766 27.6013C107.949 27.4625 108.072 27.2466 108.072 26.9922C108.072 26.5758 107.735 26.2366 107.322 26.2366C107.184 26.2366 107.054 26.2751 106.939 26.3445L106.909 26.36C106.519 26.5758 106.029 26.8226 105.815 26.8226C105.318 26.8226 104.56 26.1826 103.849 26.1826C103.314 26.1826 102.702 26.4833 102.235 26.7917L102.044 26.9305C101.868 27.0693 101.761 27.2852 101.761 27.5319C101.761 27.956 102.105 28.3029 102.526 28.3029" fill="#007CBD"></path> <path d="M99.16 37.2551C98.9076 37.1934 98.0509 37.4787 97.676 37.5481C97.4007 37.6021 97.0947 37.6329 96.7428 37.6329C95.0676 37.6329 94.2108 36.3376 94.2108 34.4563C94.2108 32.575 95.167 31.3337 96.8423 31.3337C97.2706 31.3337 97.6684 31.4108 98.0509 31.5264C98.2803 31.5958 98.8694 31.7808 99.0912 31.75C99.5043 31.6806 99.8255 31.3182 99.8255 30.8787C99.8255 30.5164 99.6114 30.2002 99.2977 30.0692L99.2136 30.0229C98.3951 29.6451 97.4772 29.4678 96.6051 29.4678C93.5836 29.4678 91.7783 31.5264 91.7783 34.572C91.7783 37.0084 92.8492 38.7123 94.8534 39.2829C94.8534 39.2829 95.1594 39.3754 95.6566 39.4371C95.5724 39.6376 95.4883 39.838 95.3889 40.0308L95.3277 40.1387L95.2512 40.2775L95.2129 40.3778C95.0676 40.8404 95.32 41.3338 95.779 41.4803C96.0314 41.5574 96.2991 41.5189 96.5057 41.3801L96.5745 41.3261C96.674 41.2644 96.7964 41.2336 96.9264 41.2336C97.2477 41.2336 97.5154 41.4495 97.5154 41.7193C97.5154 41.9892 97.2477 42.2051 96.9264 42.2128C96.7581 42.2128 96.192 42.0278 96.0161 42.0278C95.6107 42.0278 95.2818 42.2513 95.2818 42.66C95.2818 42.9915 95.5265 43.246 95.8249 43.3385C96.085 43.4233 96.345 43.5004 96.6434 43.5004C97.8979 43.5004 98.9153 42.8836 98.9153 41.6037C98.9153 40.7787 98.288 40.0848 97.4083 39.8226C97.4389 39.7455 97.4619 39.6684 97.4925 39.5836L97.546 39.4063C98.1274 39.3215 98.6781 39.1595 99.2595 38.8897L99.3513 38.8434C99.619 38.6969 99.7949 38.4116 99.7949 38.0878C99.7949 37.6946 99.5272 37.3553 99.1677 37.2551" fill="#007CBD"></path> <path d="M76.9616 37.6793C76.8392 37.7024 76.7168 37.7101 76.5868 37.7101C75.4393 37.7101 74.4984 37.047 74.4908 36.2298C74.4908 36.1064 74.5137 35.983 74.552 35.8674C74.7356 35.3277 75.3246 34.8959 76.0819 34.7648C76.6097 34.6877 77.1681 34.6492 77.7495 34.6492C78.0019 34.6492 78.2467 34.6492 78.4915 34.6723V36.2375C78.4762 36.9699 77.8183 37.5713 76.9692 37.687L76.9616 37.6793ZM80.8245 32.7756C80.8245 30.9482 78.9581 29.4756 76.5256 29.4756C75.2022 29.4756 74.0089 29.9151 73.198 30.609C72.9686 30.7786 72.8232 31.0485 72.8232 31.3492C72.8232 31.858 73.2363 32.2744 73.7335 32.2744C73.8865 32.2744 74.0318 32.2359 74.1542 32.1742L74.4143 32.0123C74.6897 31.8195 75.3705 31.2952 76.4873 31.2952C77.8566 31.2952 78.4838 31.8812 78.4838 32.6137V33.0223C78.239 33.0069 77.9942 32.9992 77.7418 32.9992C76.8162 32.9992 75.9365 33.0994 75.141 33.2844C73.4581 33.67 72.2266 34.8034 72.2266 36.3685C72.2266 38.5582 74.3149 39.4141 76.2578 39.4141C77.2752 39.4141 78.1472 39.1057 78.8663 38.6508C78.9887 39.0517 79.2947 39.391 79.8301 39.391C80.3656 39.391 80.8245 38.9438 80.8245 38.3886V32.7833V32.7756Z" fill="#007CBD"></path> <path d="M105.195 37.6793C105.073 37.7024 104.95 37.7101 104.82 37.7101C103.665 37.7101 102.732 37.047 102.717 36.2298C102.717 36.1064 102.739 35.983 102.778 35.8674C102.961 35.3277 103.55 34.8959 104.308 34.7648C104.835 34.6877 105.394 34.6492 105.975 34.6492C106.228 34.6492 106.472 34.6492 106.717 34.6723V36.2375C106.702 36.9699 106.044 37.5713 105.195 37.687V37.6793ZM109.05 32.7756C109.05 30.9482 107.184 29.4756 104.751 29.4756C103.42 29.4756 102.235 29.9151 101.424 30.609C101.202 30.7786 101.049 31.0485 101.049 31.3492C101.049 31.858 101.462 32.2744 101.967 32.2744C102.12 32.2744 102.258 32.2359 102.388 32.1742L102.648 32.0123C102.923 31.8195 103.604 31.2952 104.721 31.2952C106.09 31.2952 106.717 31.8812 106.717 32.6137V33.0223C106.472 33.0069 106.228 32.9992 105.975 32.9992C105.05 32.9992 104.17 33.0994 103.374 33.2844C101.692 33.67 100.46 34.8034 100.46 36.3685C100.46 38.5582 102.548 39.4141 104.491 39.4141C105.509 39.4141 106.381 39.1057 107.1 38.6508C107.222 39.0517 107.528 39.391 108.064 39.391C108.599 39.391 109.058 38.9438 109.058 38.3886V32.7833L109.05 32.7756Z" fill="#007CBD"></path> <path d="M158.145 37.6793C158.023 37.7024 157.9 37.7101 157.77 37.7101C156.615 37.7101 155.682 37.047 155.674 36.2298C155.674 36.1064 155.697 35.983 155.736 35.8674C155.919 35.3277 156.508 34.8959 157.265 34.7648C157.801 34.6877 158.352 34.6492 158.933 34.6492C159.185 34.6492 159.43 34.6492 159.675 34.6723V36.2375C159.66 36.9699 159.002 37.5713 158.153 37.687L158.145 37.6793ZM162.008 32.7756C162.008 30.9482 160.142 29.4756 157.709 29.4756C156.386 29.4756 155.192 29.9151 154.382 30.609C154.152 30.7786 154.007 31.0485 154.007 31.3492C154.007 31.858 154.42 32.2744 154.917 32.2744C155.07 32.2744 155.215 32.2359 155.338 32.1742L155.598 32.0123C155.873 31.8195 156.554 31.2952 157.671 31.2952C159.048 31.2952 159.667 31.8812 159.667 32.6137V33.0223C159.423 33.0069 159.178 32.9992 158.925 32.9992C158 32.9992 157.12 33.0994 156.325 33.2844C154.642 33.67 153.41 34.8034 153.41 36.3685C153.41 38.5582 155.498 39.4141 157.441 39.4141C158.459 39.4141 159.331 39.1057 160.05 38.6508C160.172 39.0517 160.478 39.391 161.014 39.391C161.549 39.391 162.008 38.9438 162.008 38.3886V32.7833V32.7756Z" fill="#007CBD"></path></g> <defs><clipPath id="clip0_1435_1111"><rect width="162" height="44" fill="white"></rect></clipPath></defs></svg>