<svg width="128" height="46" viewBox="0 0 128 46" fill="none" xmlns="http://www.w3.org/2000/svg">
<g clip-path="url(#clip0_40005509_41760)">
<path d="M10.0862 15.8429C10.7777 14.5183 11.5998 13.2491 12.5286 12.0629C12.7866 11.7343 12.8692 11.2986 12.7522 10.8974C12.6353 10.4893 12.3394 10.178 11.9438 10.0362C9.86262 9.29961 7.6782 8.87423 5.45251 8.77394C5.44563 8.77394 5.40091 8.77394 5.39403 8.77394C4.98466 8.77394 4.59594 8.97106 4.35514 9.29961C3.80473 10.0466 3.29561 10.8351 2.83809 11.6444C2.65576 11.966 2.61792 12.3568 2.73144 12.7061C2.84497 13.0485 3.09609 13.3286 3.42289 13.4773C5.1085 14.2278 6.70812 15.1685 8.18045 16.2752C8.40405 16.4446 8.66893 16.5311 8.94757 16.5311C9.42574 16.5311 9.86262 16.2683 10.0828 15.8429" fill="#FED061"/>
<path d="M32.591 10.8974C32.4741 11.2986 32.5601 11.7343 32.8146 12.0629C33.7434 13.2491 34.5656 14.5183 35.257 15.8429C35.4806 16.2683 35.9141 16.5311 36.3923 16.5311C36.6709 16.5311 36.9358 16.4446 37.1594 16.2752C38.6317 15.1685 40.2348 14.2244 41.9169 13.4773C42.2437 13.3321 42.4949 13.052 42.6084 12.7096C42.7253 12.3568 42.6841 11.9695 42.5017 11.6479C42.0477 10.8386 41.5351 10.0501 40.9847 9.30308C40.7405 8.97453 40.3517 8.7774 39.9458 8.7774C39.9389 8.7774 39.8942 8.7774 39.8873 8.7774C37.6616 8.88115 35.4806 9.30653 33.3994 10.0397C33.0038 10.178 32.708 10.4928 32.591 10.9009" fill="#FED061"/>
<path d="M21.7624 14.2624C22.0032 14.5044 22.3266 14.6393 22.6706 14.6393C23.0146 14.6393 23.338 14.5044 23.5788 14.2624C24.714 13.1142 25.9627 12.0767 27.2837 11.1809C27.6277 10.9492 27.8375 10.5619 27.8513 10.1434C27.865 9.7215 27.6793 9.3307 27.3456 9.07478C26.0659 8.08914 24.6761 7.24183 23.221 6.55016C23.049 6.47061 22.8598 6.42566 22.6672 6.42566C22.4745 6.42566 22.2853 6.47061 22.1133 6.55016C20.6582 7.24183 19.2684 8.08914 17.9887 9.07478C17.655 9.3307 17.4727 9.7215 17.483 10.1434C17.4968 10.5584 17.7066 10.9492 18.0506 11.1809C19.3751 12.0801 20.6203 13.1142 21.7556 14.2624" fill="#FED061"/>
<path d="M7.14068 7.15235C9.56934 7.42556 11.9395 8.06536 14.179 9.04755C14.3441 9.12017 14.5195 9.15822 14.6984 9.15822C15.0149 9.15822 15.3211 9.04063 15.5584 8.82967C16.2774 8.18987 17.0376 7.58811 17.8288 7.03822C18.2623 6.73389 18.4687 6.20129 18.3517 5.68254C18.2348 5.16032 17.8357 4.7799 17.3094 4.68998C15.18 4.33031 12.9818 4.27497 10.8249 4.53781C9.34918 4.71765 7.95596 5.37474 6.893 6.39842C6.76571 6.51601 6.72099 6.69239 6.77259 6.85839C6.8242 7.02093 6.96868 7.13852 7.13724 7.15581" fill="#F18700"/>
<path d="M26.9908 5.67878C26.8738 6.19754 27.0802 6.73013 27.5171 7.03447C28.3049 7.58435 29.0686 8.18957 29.7841 8.82592C30.0215 9.03688 30.3276 9.15446 30.6441 9.15446C30.823 9.15446 30.9984 9.11642 31.1635 9.04379C33.403 8.05815 35.7732 7.42181 38.2018 7.1486C38.3704 7.13131 38.5046 7.0068 38.5562 6.84772C38.6112 6.68863 38.5562 6.50188 38.4392 6.38429C37.3831 5.36753 35.9899 4.71044 34.5176 4.5306C32.3607 4.26776 30.1625 4.3231 28.0331 4.68623C27.5068 4.77614 27.1078 5.15657 26.9908 5.67878Z" fill="#F18700"/>
<path d="M15.9165 2.7425C18.0734 2.95346 20.1959 3.45146 22.2152 4.22269C22.3596 4.27802 22.5144 4.30569 22.6658 4.30569C22.8172 4.30569 22.972 4.27802 23.1199 4.22269C25.1426 3.45146 27.2617 2.95346 29.4186 2.7425C29.8245 2.70445 30.1341 2.38974 30.1788 1.98165C30.2235 1.57356 29.9827 1.20005 29.594 1.07555C25.1289 -0.363136 20.2062 -0.363136 15.7376 1.07555C15.3489 1.20005 15.1115 1.57356 15.1528 1.98165C15.1975 2.38974 15.5105 2.70099 15.913 2.7425" fill="#F18700"/>
<path d="M14.5617 12.3222C13.1685 13.9477 12.0092 15.753 11.1148 17.6931C10.8946 18.1704 10.9909 18.7341 11.359 19.1249C12.8657 20.7296 14.1489 22.5245 15.174 24.4612C15.4045 24.8969 15.831 25.1563 16.3161 25.1563C16.8837 25.1563 17.3825 24.7897 17.5545 24.2398C18.3182 21.8051 19.45 19.5157 20.9189 17.4303C21.2801 16.915 21.2353 16.2233 20.8122 15.7806C19.4431 14.3489 17.8882 13.1004 16.1923 12.0629C15.6762 11.7482 14.9573 11.8623 14.5617 12.3222Z" fill="#F2E734"/>
<path d="M29.0236 25.1563C29.5086 25.1563 29.9352 24.8969 30.1657 24.4612C31.1942 22.5245 32.4774 20.7296 33.9807 19.1249C34.3487 18.7341 34.4451 18.1704 34.2249 17.6931C33.3305 15.753 32.1712 13.9442 30.778 12.3222C30.3824 11.8623 29.6634 11.7482 29.1474 12.0629C27.4549 13.0969 25.9 14.3489 24.5309 15.7806C24.1078 16.2233 24.0631 16.915 24.4243 17.4303C25.8931 19.5157 27.0249 21.8051 27.7886 24.2398C27.9606 24.7897 28.4594 25.1563 29.027 25.1563" fill="#F2E734"/>
<path d="M37.29 18.3982C36.8875 18.7336 36.7327 19.28 36.8978 19.7919C37.3588 21.2375 37.6822 22.735 37.8679 24.2428C37.9505 24.9068 38.4906 25.3876 39.1511 25.3876C39.5398 25.3876 39.9079 25.2077 40.1555 24.8999C41.4628 23.2779 42.9764 21.822 44.6551 20.5769C45.0473 20.283 45.2468 19.8092 45.1711 19.3354C44.9888 18.163 44.717 17.0044 44.3593 15.8874C44.1838 15.3409 43.6885 14.9778 43.1208 14.9778C42.9385 14.9778 42.7596 15.0158 42.5911 15.0919C40.6853 15.9427 38.8999 17.0598 37.29 18.4016" fill="#F2E734"/>
<path d="M8.05025 18.399C6.44032 17.0537 4.65494 15.9401 2.74917 15.0893C2.5806 15.0132 2.40172 14.9752 2.2194 14.9752C1.6518 14.9752 1.15643 15.3418 0.980992 15.8848C0.623229 17.0018 0.351467 18.1638 0.169145 19.3328C0.0934645 19.8066 0.292986 20.2838 0.685149 20.5743C2.36044 21.8228 3.87405 23.2753 5.18471 24.8973C5.43583 25.2086 5.80047 25.3849 6.18919 25.3849C6.85312 25.3849 7.3932 24.9042 7.47232 24.2402C7.65809 22.7324 7.98145 21.2349 8.44241 19.7893C8.60409 19.2774 8.44929 18.731 8.05025 18.3955" fill="#F2E734"/>
<path d="M18.5868 34.2448C18.6246 34.2551 18.6625 34.2621 18.7037 34.2621C18.8413 34.2621 18.9721 34.1964 19.0581 34.0857L19.1131 34.0131C19.1922 33.9128 19.2748 33.8056 19.3574 33.688C20.1142 32.6574 21.153 31.2464 26.75 30.6757C26.9805 30.6515 27.1559 30.4509 27.1387 30.2123C26.9082 26.4634 25.742 22.7941 23.7675 19.602C23.5301 19.2215 23.1207 18.9933 22.6735 18.9933C22.2263 18.9933 21.8135 19.2215 21.5796 19.602C19.3436 23.2194 18.1637 27.3833 18.1637 31.6441C18.1637 32.3669 18.2015 33.1139 18.2737 33.8678C18.2909 34.0476 18.4182 34.1929 18.5902 34.2413" fill="#94C24A"/>
<path d="M16.3031 35.7427C16.2446 30.8664 14.676 26.2287 11.7691 22.3241C11.5215 21.9921 11.1431 21.7985 10.7337 21.7985C10.1042 21.7985 9.58129 22.2308 9.45745 22.8498C9.17192 24.3058 9.024 25.7964 9.024 27.2766C9.024 30.2127 9.57785 33.0832 10.6683 35.8015C10.7268 35.9467 10.861 36.0505 11.0158 36.0712L11.1775 36.092C11.3047 36.1093 11.432 36.1266 11.5627 36.1404C12.5741 36.2338 13.4754 36.2822 14.2356 36.2822C14.8824 36.2822 15.4362 36.2511 15.9281 36.1819C16.1449 36.1542 16.3065 35.964 16.3031 35.7427Z" fill="#94C24A"/>
<path d="M43.0011 31.6997C39.0485 36.1126 30.5413 43.517 17.968 43.517C17.022 43.517 16.0553 43.4755 15.099 43.389C15.0852 43.389 15.0543 43.389 15.0405 43.389C14.7343 43.389 14.4729 43.6104 14.4213 43.9147C14.3697 44.2225 14.5348 44.5095 14.8272 44.6133C17.3729 45.5332 20.0423 45.9967 22.7634 45.9967C31.8347 45.9967 40.1837 40.6569 44.0365 32.3879C44.1294 32.1908 44.1156 31.966 43.9987 31.7861C43.7854 31.4507 43.2694 31.3988 43.0011 31.6962" fill="#94C24A"/>
<path d="M45.0135 24.2464C44.5354 23.7138 43.6444 23.6723 43.1353 24.1876C41.4359 25.8926 40.0186 27.8535 38.9178 30.015C38.8318 30.1845 38.8662 30.3885 38.9969 30.5234C39.0795 30.6064 39.193 30.6548 39.3065 30.6548C39.3719 30.6548 39.4372 30.641 39.4992 30.6099C41.7902 29.479 43.1387 29.0813 44.0916 29.2542C44.1226 29.2576 44.1535 29.2611 44.1879 29.2645C44.3909 29.2818 44.5938 29.1504 44.6489 28.9429C44.9791 27.7221 45.213 26.4805 45.3369 25.2494C45.3747 24.8793 45.2612 24.5231 45.017 24.2499" fill="#94C24A"/>
<path d="M29.4466 33.7922C29.4466 33.7922 29.457 33.7991 29.4638 33.8026C29.4638 33.8026 29.4742 33.8026 29.4776 33.8095C29.5154 33.8233 29.5739 33.8441 29.6014 33.8475C29.9282 33.9063 30.286 33.9374 30.6541 33.9374C32.0679 33.9374 33.6951 33.5155 35.4942 32.6855C35.618 32.6302 35.7075 32.516 35.735 32.3881C36.1168 30.7073 36.3129 28.9885 36.3129 27.2766C36.3129 25.7964 36.1684 24.3093 35.8795 22.8533C35.7591 22.2342 35.2328 21.8019 34.6032 21.8019C34.1939 21.8019 33.8155 21.9956 33.5678 22.3276C31.8856 24.5825 30.6506 27.1002 29.887 29.8047C29.8491 29.943 29.8801 30.0952 29.973 30.2058C30.0658 30.3165 30.2103 30.3718 30.3514 30.3615L34.1423 29.9672C34.3418 29.9672 34.3556 30.071 34.3659 30.1643C34.4072 30.5136 33.6366 31.5996 29.6118 32.3984C29.6118 32.3984 29.6083 32.3984 29.6049 32.4019C29.2368 32.4642 28.9685 32.7235 28.9409 33.0555C28.91 33.3806 29.1095 33.6642 29.4432 33.7991" fill="#94C24A"/>
<path d="M2.20863 24.1842C1.69606 23.6723 0.805097 23.7138 0.330373 24.243C0.0861309 24.5162 -0.02739 24.8689 0.0104503 25.2425C0.230612 27.4212 0.767256 29.562 1.60318 31.6024C1.62038 31.6439 1.64446 31.6854 1.67542 31.7166C2.20863 32.3529 2.82439 32.8889 3.50208 33.3143C4.81273 34.134 6.20594 34.798 7.65075 35.2891C7.69547 35.3064 7.74363 35.3133 7.78835 35.3133C7.89499 35.3133 8.00163 35.2718 8.08419 35.1957C8.20116 35.085 8.24932 34.9225 8.21148 34.7668C7.20355 30.769 5.12921 27.11 2.21207 24.1842" fill="#94C24A"/>
<path d="M58.9619 20.505C58.3049 20.505 57.8199 20.2594 57.4758 19.758C57.1284 19.2461 56.9495 18.3919 56.9495 17.2161C56.9495 16.0402 57.1594 15.1065 57.5722 14.4459C57.9781 13.7957 58.6145 13.4776 59.5192 13.4776C59.8976 13.4776 60.2554 13.5087 60.5788 13.5709C60.8505 13.6228 61.0466 13.858 61.0466 14.1277V18.0737C61.0466 18.762 60.8574 19.3499 60.4893 19.8133C60.1212 20.2767 59.6224 20.5015 58.9619 20.5015M63.7505 20.5396C63.5922 20.5154 63.4821 20.467 63.4374 20.4012C63.3789 20.3182 63.3136 20.1142 63.3136 19.6058V13.0695C63.3136 12.7305 63.1037 12.4193 62.7907 12.3017C62.4501 12.1703 62.0132 12.0458 61.4938 11.9213C60.7095 11.738 60.0146 11.6481 59.4263 11.6481C57.9575 11.6481 56.7638 12.1703 55.8866 13.1974C55.0128 14.2211 54.5725 15.518 54.5725 17.0535C54.5725 18.589 54.8958 19.8583 55.5322 20.8335C56.179 21.8261 57.18 22.331 58.5044 22.331C59.4779 22.331 60.2864 22.0474 60.9124 21.4906C61.1292 21.297 61.4732 21.335 61.6658 21.5667C61.9892 21.961 62.488 22.1616 63.145 22.1616C63.3755 22.1616 63.5991 22.1374 63.8124 22.0889C64.0704 22.0301 64.2527 21.7846 64.2355 21.5114L64.208 21.048C64.1908 20.792 63.9981 20.5742 63.747 20.5361" fill="#7D5A49"/>
<path d="M68.7626 22.331C69.1754 22.331 69.5675 22.2792 69.9322 22.1754C70.1523 22.1132 70.3106 22.0025 70.3932 21.8503C70.4998 21.6566 70.4448 21.4699 70.4413 21.4664L70.3415 20.9062C70.2899 20.6088 70.0113 20.4047 69.7017 20.4531C69.4953 20.4877 69.3405 20.505 69.2476 20.505C69.0343 20.505 68.3911 20.505 68.3911 18.8969V8.11706C68.3911 7.78505 68.1055 7.52222 67.765 7.56372L66.6057 7.71243C66.3305 7.74701 66.1241 7.98564 66.1241 8.26577V18.9314C66.1241 19.9759 66.3374 20.8093 66.7605 21.4076C67.1939 22.0198 67.8682 22.331 68.7626 22.331Z" fill="#7D5A49"/>
<path d="M88.313 21.6946C88.6467 22.0059 89.0973 22.1615 89.6546 22.1615C89.8851 22.1615 90.1087 22.1373 90.322 22.0889C90.58 22.0301 90.7623 21.7845 90.7451 21.5113L90.7141 21.0479C90.6969 20.7885 90.5008 20.5741 90.2463 20.5326C90.0571 20.5049 89.978 20.453 89.9436 20.4115C89.8954 20.3562 89.8163 20.1798 89.8163 19.6369V12.35C89.8163 12.018 89.5307 11.7552 89.1902 11.7967L88.0309 11.9489C87.7557 11.9835 87.5493 12.2221 87.5493 12.5022V19.2945C87.5493 19.4709 87.4702 19.6369 87.3395 19.7372C86.8957 20.083 86.3074 20.2594 85.5954 20.2594C84.3673 20.2594 83.7687 19.4951 83.7687 17.9215V12.35C83.7687 12.018 83.4763 11.7552 83.1426 11.7967L81.9833 11.9489C81.7081 11.9835 81.5017 12.2221 81.5017 12.5022V18.5336C81.5017 21.0479 82.6851 22.324 85.014 22.324C86.0116 22.324 86.8888 22.0854 87.6181 21.6151C87.8279 21.4802 88.1169 21.5113 88.3061 21.6877" fill="#7D5A49"/>
<path d="M93.6541 10.2817C94.5657 10.2817 95.0473 9.81829 95.0473 8.93986C95.0473 8.51794 94.9269 8.19285 94.6895 7.97497C94.4556 7.76055 94.1632 7.65334 93.8226 7.65334C92.9489 7.65334 92.4845 8.12368 92.4845 9.01595C92.4845 9.42404 92.598 9.74221 92.8216 9.96009C93.0418 10.1745 93.3238 10.2852 93.6541 10.2852" fill="#7D5A49"/>
<path d="M93.1144 11.9559C92.8392 11.9905 92.6328 12.2291 92.6328 12.5092V21.5529C92.6328 21.8607 92.8805 22.1097 93.1867 22.1097H94.346C94.6521 22.1097 94.8998 21.8607 94.8998 21.5529V12.3605C94.8998 12.0285 94.6074 11.7657 94.2737 11.8072L93.1144 11.9593V11.9559Z" fill="#7D5A49"/>
<path d="M109.376 21.5493C109.376 21.8571 109.623 22.1061 109.93 22.1061H111.089C111.395 22.1061 111.643 21.8571 111.643 21.5493V15.4383C111.643 14.1933 111.374 13.2388 110.841 12.6094C110.301 11.973 109.431 11.6479 108.251 11.6479C107.267 11.6479 106.318 11.9142 105.437 12.4365C105.224 12.561 104.945 12.5402 104.77 12.3811C104.236 11.8969 103.5 11.6479 102.582 11.6479C101.808 11.6479 101.02 11.8347 100.249 12.2047C100.249 12.2047 99.9295 12.35 99.9226 12.3535C99.7025 12.4503 99.4376 12.3535 99.3413 12.139C99.2449 11.9246 99.0282 11.7897 98.7977 11.7897C98.7702 11.7897 98.7427 11.7897 98.7083 11.7967L97.8655 11.9627C97.7141 11.9834 97.5731 12.0664 97.4871 12.1909C97.3976 12.3154 97.3667 12.4676 97.3942 12.6163C97.549 13.3875 97.6281 14.2486 97.6281 15.1755V21.5493C97.6281 21.8571 97.8758 22.1061 98.182 22.1061H99.3413C99.6474 22.1061 99.8951 21.8571 99.8951 21.5493V15.096C99.8951 14.5945 100.184 14.138 100.631 13.9305C101.034 13.7403 101.45 13.6469 101.866 13.6469C102.54 13.6469 102.974 13.8406 103.187 14.2348C103.411 14.6498 103.524 15.2377 103.524 15.9848V21.5528C103.524 21.8606 103.772 22.1096 104.078 22.1096H105.237C105.544 22.1096 105.791 21.8606 105.791 21.5528V15.6078C105.791 15.4695 105.788 15.3311 105.781 15.1962C105.753 14.6533 106.032 14.1622 106.5 13.9478C107.343 13.5535 108.127 13.5777 108.598 13.8371C109.121 14.1103 109.386 14.8331 109.386 15.9848V21.5528L109.376 21.5493Z" fill="#7D5A49"/>
<path d="M115.011 10.2817C115.923 10.2817 116.404 9.81829 116.404 8.93986C116.404 8.51794 116.284 8.19285 116.046 7.97497C115.813 7.76055 115.52 7.65334 115.18 7.65334C114.306 7.65334 113.841 8.12368 113.841 9.01595C113.841 9.42404 113.955 9.74221 114.179 9.96009C114.399 10.1745 114.681 10.2852 115.011 10.2852" fill="#7D5A49"/>
<path d="M114.47 11.9559C114.194 11.9904 113.988 12.2291 113.988 12.5092V21.5529C113.988 21.8607 114.236 22.1097 114.542 22.1097H115.701C116.007 22.1097 116.255 21.8607 116.255 21.5529V12.3605C116.255 12.0285 115.966 11.7656 115.629 11.8071L114.47 11.9593V11.9559Z" fill="#7D5A49"/>
<path d="M122.393 20.5049C121.736 20.5049 121.251 20.2593 120.91 19.7579C120.559 19.246 120.384 18.3918 120.384 17.216C120.384 16.0401 120.594 15.1063 121.007 14.4458C121.413 13.7956 122.049 13.4774 122.954 13.4774C123.332 13.4774 123.69 13.5086 124.013 13.5708C124.285 13.6227 124.481 13.8579 124.481 14.1276V18.0736C124.481 18.7619 124.292 19.3498 123.924 19.8132C123.556 20.2766 123.057 20.5014 122.396 20.5014M124.347 21.4905C124.564 21.2969 124.908 21.3349 125.1 21.5666C125.424 21.9609 125.922 22.1615 126.579 22.1615C126.81 22.1615 127.034 22.1372 127.247 22.0923C127.505 22.0335 127.687 21.788 127.67 21.5147L127.639 21.0513C127.622 20.7919 127.429 20.5775 127.178 20.5395C127.02 20.5153 126.91 20.4668 126.865 20.4011C126.806 20.3181 126.738 20.1141 126.738 19.6057V13.0694C126.738 12.7304 126.528 12.4192 126.215 12.3016C125.874 12.1736 125.437 12.0457 124.918 11.9246C124.134 11.7413 123.439 11.6514 122.854 11.6514C121.385 11.6514 120.191 12.1736 119.314 13.2008C118.44 14.2245 118 15.5214 118 17.0569C118 18.5924 118.323 19.8616 118.96 20.8369C119.606 21.8295 120.608 22.3344 121.932 22.3344C122.905 22.3344 123.714 22.0508 124.34 21.494" fill="#7D5A49"/>
<path d="M69.2205 36.6138C68.5635 36.6138 68.0784 36.3683 67.7344 35.8668C67.387 35.3549 67.2081 34.5007 67.2081 33.3249C67.2081 32.149 67.4179 31.2153 67.8307 30.5547C68.2367 29.9045 68.8731 29.5864 69.7778 29.5864C70.1562 29.5864 70.514 29.6175 70.8373 29.6797C71.1091 29.7316 71.3052 29.9668 71.3052 30.2365V34.1826C71.3052 34.8708 71.116 35.4587 70.7479 35.9256C70.3798 36.389 69.881 36.6138 69.2205 36.6138ZM74.009 36.6484C73.8508 36.6242 73.7407 36.5758 73.696 36.51C73.6375 36.427 73.5687 36.223 73.5687 35.7146V29.1299C73.5687 28.8186 73.3829 28.5419 73.094 28.4313C72.7465 28.2929 72.2925 28.1615 71.7489 28.0335C70.9646 27.8502 70.2697 27.7603 69.6849 27.7603C68.2126 27.7603 67.0223 28.2825 66.1451 29.3097C65.2748 30.3299 64.831 31.6303 64.831 33.1658C64.831 34.7013 65.1544 35.9705 65.7908 36.9458C66.4375 37.9384 67.4386 38.4433 68.763 38.4433C69.7365 38.4433 70.5449 38.1597 71.171 37.6029C71.3877 37.4092 71.7317 37.4473 71.9209 37.679C72.2443 38.0732 72.7431 38.2738 73.4001 38.2738C73.6272 38.2738 73.8508 38.2496 74.0675 38.2012C74.3255 38.1424 74.5078 37.8969 74.4906 37.6237L74.4597 37.1602C74.4425 36.9043 74.2498 36.6864 73.9987 36.6484" fill="#7D5A49"/>
<path d="M85.2499 32.63C84.9885 32.4916 84.7374 32.3775 84.5069 32.2945C84.2799 32.215 84.0528 32.132 83.8326 32.0455L83.3786 31.8691C83.2994 31.838 83.1756 31.7827 83.0036 31.7031C82.8385 31.6236 82.7181 31.5613 82.6527 31.5095C82.5839 31.4576 82.4842 31.3677 82.3603 31.2432C82.2537 31.136 82.2021 30.9803 82.2021 30.7659C82.2021 29.9981 82.7697 29.6246 83.9324 29.6246C84.5035 29.6246 85.1536 29.763 85.8657 30.0327C86.165 30.1469 86.5159 29.9636 86.595 29.6558L86.8014 28.8984C86.8358 28.767 86.8289 28.4868 86.5468 28.3692C85.6387 27.9854 84.6892 27.7986 83.6503 27.7986C82.5358 27.7986 81.6345 28.0684 80.974 28.601C80.3066 29.1405 79.9695 29.8909 79.9695 30.8316C79.9695 31.7723 80.3341 32.4951 81.0531 32.9689C81.4143 33.2006 81.7067 33.3666 81.9441 33.4738C82.178 33.581 82.5289 33.7194 83.0139 33.8958C84.1663 34.3211 84.7511 34.8468 84.7511 35.4555C84.7511 36.2371 84.1732 36.6175 82.983 36.6175C82.3741 36.6175 81.6551 36.455 80.8398 36.1333C80.544 36.0157 80.1931 36.1956 80.1071 36.4999L79.9041 37.2123C79.8285 37.4752 79.9592 37.7553 80.2103 37.8729C81.0153 38.2499 81.9062 38.4435 82.8522 38.4435C84.4828 38.4435 85.6662 38.0251 86.3714 37.2054C86.7773 36.7455 86.9803 36.1645 86.9803 35.4762C86.9803 34.4698 86.6775 33.7055 86.079 33.211C85.7866 32.9689 85.5079 32.7752 85.2499 32.6369" fill="#7D5A49"/>
<path d="M92.0998 36.6138C91.4428 36.6138 90.9577 36.3683 90.6172 35.8668C90.2663 35.3549 90.0908 34.5007 90.0908 33.3249C90.0908 32.149 90.3007 31.2153 90.7135 30.5547C91.1194 29.9045 91.7558 29.5864 92.6605 29.5864C93.0389 29.5864 93.3967 29.6175 93.7201 29.6797C93.9918 29.7316 94.1879 29.9668 94.1879 30.2365V34.1826C94.1879 34.8708 93.9987 35.4587 93.6306 35.9221C93.2625 36.3855 92.7637 36.6103 92.1033 36.6103M96.8883 36.6484C96.7301 36.6242 96.62 36.5758 96.5753 36.51C96.5168 36.427 96.448 36.223 96.448 35.7146V28.9984C96.448 28.7736 96.3173 28.5765 96.1178 28.4901C95.7531 28.331 95.2509 28.1788 94.6282 28.0335C93.8439 27.8502 93.149 27.7603 92.5642 27.7603C91.0919 27.7603 89.9016 28.2825 89.0244 29.3097C88.1507 30.3299 87.7103 31.6303 87.7103 33.1658C87.7103 34.7013 88.0337 35.9705 88.6701 36.9458C89.3168 37.9384 90.3179 38.4433 91.6423 38.4433C92.6158 38.4433 93.4242 38.1597 94.0503 37.6029C94.267 37.4092 94.611 37.4473 94.8037 37.6824C95.127 38.0767 95.6259 38.2773 96.2829 38.2773C96.5099 38.2773 96.7335 38.2531 96.9503 38.2047C97.2083 38.1459 97.3906 37.9003 97.3734 37.6271L97.3424 37.1637C97.3252 36.9078 97.1326 36.6899 96.8815 36.6518" fill="#7D5A49"/>
<path d="M107.631 36.6485C107.442 36.6208 107.362 36.5655 107.328 36.5274C107.28 36.4721 107.201 36.2957 107.201 35.7493V28.4659C107.201 28.1339 106.912 27.8711 106.575 27.9126L105.415 28.0647C105.14 28.0993 104.934 28.338 104.934 28.6181V35.4104C104.934 35.5867 104.855 35.7493 104.724 35.853C104.28 36.1989 103.692 36.3752 102.98 36.3752C101.752 36.3752 101.153 35.6109 101.153 34.0374V28.4694C101.153 28.1374 100.861 27.8745 100.527 27.916L99.3678 28.0682C99.0926 28.1028 98.8862 28.3414 98.8862 28.6215V34.653C98.8862 37.1672 100.07 38.4434 102.402 38.4434C103.4 38.4434 104.277 38.2047 105.006 37.7344C105.216 37.5995 105.505 37.6306 105.694 37.807C106.028 38.1183 106.478 38.2774 107.036 38.2774C107.263 38.2774 107.49 38.2531 107.706 38.2047C107.964 38.1459 108.147 37.9004 108.13 37.6272L108.099 37.1638C108.081 36.9044 107.885 36.69 107.631 36.6519" fill="#7D5A49"/>
<path d="M102.361 26.6713C102.413 26.6713 102.464 26.6609 102.516 26.6436L105.984 25.3709C106.2 25.2914 106.324 25.0528 106.262 24.8314C106.204 24.6239 106.094 24.3784 105.932 24.1052C105.664 23.6487 105.399 23.4239 105.124 23.4239C104.962 23.4239 104.618 23.5138 103.496 24.2988C102.802 24.783 102.255 25.2084 101.873 25.5611C101.718 25.7029 101.684 25.9312 101.787 26.1145L101.976 26.45C102.055 26.5883 102.203 26.6747 102.365 26.6747" fill="#7D5A49"/>
<path d="M63.7263 36.6449C63.5474 36.6172 63.4718 36.5653 63.4374 36.5273C63.3892 36.472 63.3101 36.2956 63.3101 35.7526V24.2258C63.3101 23.8938 63.0211 23.631 62.684 23.6759L61.5247 23.8281C61.2495 23.8627 61.0431 24.1013 61.0431 24.378V34.2205C61.0431 34.8742 60.8573 35.4414 60.4927 35.9152C60.1315 36.3855 59.6327 36.6137 58.9757 36.6137C58.3186 36.6137 57.8301 36.3717 57.4792 35.8737C57.1249 35.3687 56.946 34.4938 56.946 33.2764C56.946 32.0591 57.1387 31.1184 57.5205 30.4959C57.8955 29.8837 58.5491 29.5863 59.5123 29.5863C59.5673 29.5863 59.6465 29.5932 59.7187 29.5967C59.7703 29.6001 59.8219 29.6036 59.8838 29.6071C60.1831 29.6071 60.4308 29.3788 60.4652 29.0641V28.4243C60.4858 28.2617 60.4377 28.1061 60.3345 27.9816C60.2278 27.8571 60.073 27.7776 59.9079 27.7672C59.7944 27.7603 59.6843 27.7568 59.5742 27.7568C57.9196 27.7568 56.6536 28.2583 55.8211 29.2508C54.9921 30.2365 54.5724 31.5853 54.5724 33.266C54.5724 34.9468 54.9371 36.2402 55.6526 37.1118C56.375 37.9902 57.3244 38.4363 58.4768 38.4363C59.4641 38.4363 60.2829 38.1527 60.9124 37.5959C61.1326 37.4023 61.4697 37.4265 61.6486 37.6513C61.9719 38.0594 62.4742 38.2669 63.145 38.2669C63.3651 38.2669 63.5784 38.2461 63.7848 38.2011C64.0566 38.1458 64.2561 37.8899 64.2389 37.6167L64.2114 37.1533C64.1942 36.9043 63.9843 36.6795 63.7298 36.638" fill="#7D5A49"/>
<path d="M118.192 36.6449C118.013 36.6172 117.937 36.5653 117.903 36.5273C117.855 36.472 117.776 36.2956 117.776 35.7526V24.2258C117.776 23.8938 117.487 23.631 117.15 23.6759L115.99 23.8281C115.715 23.8627 115.505 24.1013 115.505 24.378V34.2205C115.505 34.8742 115.319 35.4414 114.955 35.9152C114.594 36.3855 114.095 36.6137 113.438 36.6137C112.781 36.6137 112.292 36.3717 111.941 35.8737C111.587 35.3687 111.408 34.4938 111.408 33.2764C111.408 32.0591 111.601 31.1184 111.983 30.4959C112.358 29.8837 113.011 29.5863 113.974 29.5863C114.029 29.5863 114.109 29.5932 114.181 29.5967C114.232 29.6001 114.284 29.6036 114.346 29.6071C114.645 29.6071 114.893 29.3788 114.927 29.0641V28.4243C114.948 28.2617 114.9 28.1061 114.797 27.9816C114.69 27.8571 114.535 27.7776 114.37 27.7672C114.256 27.7603 114.146 27.7568 114.036 27.7568C112.382 27.7568 111.116 28.2583 110.283 29.2508C109.454 30.2365 109.034 31.5853 109.034 33.266C109.034 34.9468 109.399 36.2402 110.115 37.1118C110.837 37.9902 111.787 38.4363 112.939 38.4363C113.923 38.4363 114.745 38.1527 115.374 37.5959C115.595 37.4023 115.932 37.4265 116.111 37.6513C116.434 38.0594 116.936 38.2669 117.607 38.2669C117.827 38.2669 118.04 38.2461 118.247 38.2011C118.519 38.1458 118.718 37.8899 118.701 37.6167L118.673 37.1533C118.656 36.9043 118.446 36.6795 118.192 36.638" fill="#7D5A49"/>
<path d="M121.785 32.4741C121.846 31.6614 122.101 30.987 122.548 30.4648C123.054 29.8734 123.683 29.5863 124.468 29.5863C124.939 29.5863 125.307 29.7143 125.558 29.9702C125.813 30.2261 125.94 30.5201 125.94 30.859C125.94 32.0176 124.598 32.6263 121.957 32.6712C121.908 32.6712 121.867 32.6505 121.833 32.6159C121.798 32.5778 121.781 32.5294 121.785 32.4775M127.55 36.261C127.416 36.012 127.086 35.9083 126.834 36.0362C126.095 36.4201 125.321 36.6138 124.533 36.6138C123.642 36.6138 122.961 36.344 122.51 35.8183C122.146 35.3895 121.922 34.9538 121.853 34.5215C121.846 34.4765 121.857 34.4315 121.888 34.3935C121.922 34.352 121.97 34.3278 122.025 34.3278C124.034 34.2967 125.531 33.9612 126.477 33.3283C127.492 32.6505 128.004 31.7651 128.004 30.6896C128.004 29.8699 127.674 29.1679 127.02 28.6007C126.374 28.0404 125.493 27.7569 124.406 27.7569C123.319 27.7569 122.27 28.1684 121.282 28.9846C120.797 29.3927 120.398 29.9737 120.092 30.7034C119.789 31.4331 119.634 32.2804 119.634 33.228C119.634 34.9503 120.075 36.2645 120.949 37.1325C121.819 38.0006 122.978 38.4398 124.399 38.4398C125.194 38.4398 125.947 38.3049 126.638 38.0386C127.065 37.8761 127.406 37.7205 127.65 37.5821C127.911 37.4334 128.004 37.098 127.863 36.8317L127.553 36.261H127.55Z" fill="#7D5A49"/>
<path d="M80.1456 25.5335L80.0802 25.0666C80.0458 24.828 79.8635 24.6343 79.6296 24.5963C79.4988 24.5755 79.3956 24.5375 79.32 24.4821C79.2133 24.4026 79.1583 24.2401 79.1583 23.998V13.111C79.1583 12.7824 78.9622 12.4781 78.6663 12.357C77.5552 11.8902 76.4303 11.6515 75.3261 11.6515C73.6921 11.6515 72.4502 12.1668 71.6349 13.1836C70.8265 14.1934 70.4172 15.5664 70.4172 17.2645C70.4172 18.9626 70.799 20.2491 71.5489 21.0791C72.3023 21.9126 73.2414 22.3345 74.3422 22.3345C74.872 22.3345 75.3536 22.248 75.7698 22.0786C75.9625 21.999 76.0898 21.8019 76.0898 21.584V20.9477C76.0898 20.6018 75.7492 20.339 75.4121 20.4324C75.2332 20.4842 75.0406 20.5085 74.8376 20.5085C74.1737 20.5085 73.6817 20.2664 73.3343 19.7684C72.98 19.2634 72.8011 18.3608 72.8011 17.0881C72.8011 15.8154 73.0075 14.8817 73.4169 14.3145C73.8159 13.7611 74.5039 13.481 75.4602 13.481C75.8214 13.481 76.1586 13.5121 76.4613 13.5744C76.7124 13.6263 76.8947 13.858 76.8947 14.1277V23.6867C76.8947 24.5478 77.053 25.1911 77.3695 25.5957C77.5036 25.7721 77.6722 25.9139 77.8683 26.0142C78.0575 26.1145 78.226 26.1733 78.3739 26.1975C78.5115 26.2148 78.7248 26.2252 79.0069 26.2252C79.1961 26.2252 79.4197 26.2044 79.6777 26.1664C79.9804 26.1214 80.1903 25.8413 80.149 25.5404" fill="#7D5A49"/>
<path d="M127.325 4.9353C127.776 5.37797 127.999 5.91748 127.999 6.56074C127.999 7.204 127.776 7.74005 127.328 8.18273C126.881 8.6254 126.331 8.84328 125.681 8.84328C125.03 8.84328 124.484 8.62194 124.033 8.18273C123.586 7.74005 123.362 7.20054 123.362 6.56074C123.362 5.92094 123.586 5.37797 124.036 4.9353C124.487 4.49263 125.034 4.27129 125.681 4.27129C126.327 4.27129 126.881 4.49263 127.328 4.9353H127.325ZM126.998 5.20851C126.64 4.84192 126.2 4.65863 125.677 4.65863C125.154 4.65863 124.721 4.84192 124.36 5.20851C124.002 5.5751 123.823 6.02469 123.823 6.55728C123.823 7.08987 124.002 7.53947 124.36 7.9026C124.717 8.26919 125.158 8.45248 125.677 8.45248C126.197 8.45248 126.637 8.26919 126.995 7.9026C127.356 7.53601 127.535 7.08642 127.535 6.55728C127.535 6.02815 127.356 5.5751 126.998 5.20851ZM124.673 5.23618H125.725C126.011 5.23618 126.231 5.29843 126.393 5.42639C126.554 5.55435 126.634 5.72727 126.634 5.95207C126.634 6.19761 126.551 6.38782 126.389 6.52616C126.269 6.62991 126.114 6.69216 125.925 6.71983L126.678 7.87839H126.2L125.522 6.73366H125.086V7.87839H124.669V5.23618H124.673ZM125.089 6.38436H125.65C125.842 6.38436 125.983 6.34978 126.076 6.28061C126.166 6.21144 126.21 6.10078 126.21 5.95207C126.21 5.82065 126.166 5.72381 126.076 5.66156C125.987 5.59931 125.846 5.56818 125.65 5.56818H125.089V6.38091V6.38436Z" fill="#7D5A49"/>
</g>
<defs>
<clipPath id="clip0_40005509_41760">
<rect width="128" height="46" fill="white"/>
</clipPath>
</defs>
</svg>
