<svg width="143" height="23" viewBox="0 0 143 23" fill="none" xmlns="http://www.w3.org/2000/svg">
<g id="Link &#226;&#134;&#146; SVG" clip-path="url(#clip0_31_414)">
<g id="Camada 2">
<g id="Camada 1">
<path id="Vector" d="M21.8961 21.8526H36.7986V17.0271H28.3579V13.6755H35.9572V8.8501H28.3579V5.96964H36.7986V1.13747H21.8961V21.8526ZM51.9165 15.5667L47.8712 1.13747H41.9613L49.0626 21.8526H54.683L61.7843 1.13747H55.9888L51.9165 15.5667ZM67.1893 21.8526H80.9341V18.3933H71.5712V13.0698H80.0119V9.60387H71.5712V4.59671H80.9341V1.13747H67.1893V21.8526ZM100.939 11.4681C101.639 10.3885 101.989 9.11955 101.942 7.83387V7.16086C101.947 6.36674 101.829 5.57658 101.592 4.8188C101.37 4.11244 100.998 3.46258 100.501 2.9142C99.9665 2.34537 99.311 1.90379 98.5829 1.62203C97.6698 1.2765 96.6982 1.11192 95.7222 1.13747H87.4228V21.8526H91.0104V13.8842H94.5039L98.7511 21.8593H102.682L98.0175 13.4871C99.198 13.1737 100.233 12.46 100.945 11.4681M97.4386 10.1894C96.7031 10.7426 95.792 11.0104 94.8741 10.9431H91.0104V4.10542H95.0491C97.2434 4.10542 98.3406 5.18223 98.3406 7.33584V7.73965C98.3803 8.18185 98.3225 8.62739 98.1714 9.04484C98.0202 9.4623 97.7792 9.84151 97.4655 10.1557M121.771 3.27762C121.132 2.42601 120.27 1.76703 119.281 1.37302C116.697 0.480763 113.888 0.480763 111.305 1.37302C110.313 1.7758 109.448 2.43838 108.801 3.29108C108.156 4.18266 107.714 5.20506 107.508 6.28596C107.253 7.58022 107.131 8.89721 107.145 10.2163V12.7737C107.133 14.0966 107.25 15.4174 107.495 16.7175C107.688 17.7953 108.116 18.8176 108.747 19.7124C109.376 20.5619 110.225 21.2229 111.204 21.6237C113.787 22.5165 116.596 22.5165 119.18 21.6237C120.172 21.2213 121.037 20.5586 121.684 19.7057C122.328 18.8139 122.77 17.7916 122.976 16.7108C123.231 15.4165 123.353 14.0995 123.34 12.7805V10.223C123.352 8.90018 123.234 7.57931 122.99 6.27922C122.796 5.2015 122.369 4.17925 121.738 3.28435M120.391 12.7872C120.415 13.9688 120.307 15.1494 120.068 16.307C119.914 17.0882 119.585 17.8244 119.106 18.4606C118.696 18.9693 118.146 19.3461 117.524 19.5442C116.039 19.951 114.472 19.951 112.987 19.5442C112.357 19.3482 111.799 18.9686 111.385 18.4539C110.909 17.8185 110.586 17.0813 110.443 16.3003C110.217 15.1411 110.116 13.9612 110.14 12.7805V10.223C110.118 9.04591 110.226 7.86996 110.463 6.71668C110.616 5.9308 110.945 5.18983 111.426 4.5496C111.84 4.03521 112.397 3.65566 113.028 3.45933C114.513 3.05245 116.08 3.05245 117.564 3.45933C118.195 3.65566 118.753 4.03521 119.166 4.5496C119.642 5.18533 119.965 5.92236 120.109 6.70322C120.335 7.86239 120.436 9.04233 120.412 10.223L120.391 12.7872ZM142.166 14.0861C142.017 13.4971 141.744 12.9465 141.365 12.4709C140.949 11.9667 140.428 11.5601 139.837 11.2797C139.072 10.9217 138.258 10.6812 137.421 10.5663L134.729 10.1557C133.677 10.0976 132.672 9.7036 131.861 9.03182C131.285 8.35897 130.997 7.48597 131.06 6.60227C131.018 6.02362 131.11 5.44308 131.33 4.90603C131.549 4.36898 131.89 3.88997 132.326 3.50644C133.169 2.81998 134.56 2.4745 136.499 2.47002C137.367 2.46918 138.233 2.53669 139.09 2.67192C139.859 2.78865 140.617 2.96415 141.359 3.19686L141.769 1.70952C141.024 1.43555 140.256 1.22835 139.474 1.09036C138.548 0.921122 137.608 0.837764 136.667 0.841345C135.637 0.829656 134.61 0.951819 133.611 1.20477C132.776 1.41217 131.986 1.77272 131.282 2.26812C130.656 2.71809 130.151 3.3172 129.815 4.0112C129.462 4.76698 129.287 5.59345 129.303 6.42729V6.57535C129.225 7.86944 129.622 9.14752 130.421 10.1692C131.166 11.0306 132.413 11.5892 134.163 11.845L136.782 12.2219C137.436 12.3067 138.077 12.4787 138.686 12.7333C139.131 12.9186 139.526 13.207 139.837 13.5746C140.107 13.9128 140.3 14.3054 140.403 14.7254C140.511 15.166 140.565 15.6179 140.564 16.0714C140.564 17.6059 140.143 18.7276 139.299 19.4365C138.455 20.1454 137.035 20.4998 135.038 20.4998C134.052 20.5047 133.068 20.4214 132.097 20.2508C131.264 20.1045 130.44 19.9159 129.626 19.6855L129.276 21.2267C130.119 21.5266 130.986 21.7518 131.868 21.8997C132.897 22.0748 133.94 22.1626 134.984 22.1621C136.096 22.1815 137.205 22.0387 138.276 21.7381C139.121 21.503 139.909 21.0976 140.591 20.5469C141.179 20.0519 141.64 19.4245 141.938 18.7164C142.245 17.9742 142.398 17.1774 142.389 16.3743V16.0243C142.391 15.3776 142.312 14.7332 142.153 14.1063M8.30611 1.13747H0.814453V21.8526H15.367V16.2599H8.30611V1.13747Z" fill="#005A64"/>
</g>
</g>
</g>
<defs>
<clipPath id="clip0_31_414">
<rect width="141.59" height="21.59" fill="white" transform="translate(0.799805 0.700012)"/>
</clipPath>
</defs>
</svg>
